<?xml version="1.0" encoding="UTF-8" standalone="no"?>
<!-- Created with Inkscape (http://www.inkscape.org/) -->
<svg xmlns:dc="http://purl.org/dc/elements/1.1/" xmlns:cc="http://creativecommons.org/ns#" xmlns:rdf="http://www.w3.org/1999/02/22-rdf-syntax-ns#" xmlns:svg="http://www.w3.org/2000/svg" xmlns="http://www.w3.org/2000/svg" xmlns:sodipodi="http://sodipodi.sourceforge.net/DTD/sodipodi-0.dtd" xmlns:inkscape="http://www.inkscape.org/namespaces/inkscape" width="992.12598" height="744.09448" id="svg2" inkscape:label="Pozadí" sodipodi:version="0.32" inkscape:version="0.46" version="1.0" sodipodi:docname="grid.svg" inkscape:output_extension="org.inkscape.output.svg.inkscape" inkscape:export-filename="/home/www/petr/bf2/slides/praktika-petr/EKG/svg/ECG-PQRST+popis.png" inkscape:export-xdpi="300" inkscape:export-ydpi="300">
  <defs id="defs3">
    <inkscape:perspective sodipodi:type="inkscape:persp3d" inkscape:vp_x="0 : 526.18109 : 1" inkscape:vp_y="0 : 1000 : 0" inkscape:vp_z="744.09448 : 526.18109 : 1" inkscape:persp3d-origin="372.04724 : 350.78739 : 1" id="perspective9"/>
  </defs>
  <sodipodi:namedview id="base" pagecolor="#ffffff" bordercolor="#666666" borderopacity="1.0" inkscape:pageopacity="0.0" inkscape:pageshadow="2" inkscape:zoom="0.98994949" inkscape:cx="485.58696" inkscape:cy="373.04525" inkscape:document-units="mm" inkscape:current-layer="layer1" showgrid="true" units="cm" inkscape:window-width="1240" inkscape:window-height="967" inkscape:window-x="19" inkscape:window-y="0" objecttolerance="17" inkscape:snap-guide="true" gridtolerance="10000" guidetolerance="10000" inkscape:snap-bbox="true" inkscape:object-paths="true" inkscape:object-nodes="true" inkscape:bbox-paths="true" inkscape:bbox-nodes="true" inkscape:snap-center="false">
    <inkscape:grid type="xygrid" id="grid2402" visible="true" enabled="true" units="mm" spacingx="2.5mm" spacingy="2.5mm" dotted="false" empspacing="4"/>
  </sodipodi:namedview>
  <metadata id="metadata6">
    <rdf:RDF>
      <cc:Work rdf:about="">
        <dc:format>image/svg+xml</dc:format>
        <dc:type rdf:resource="http://purl.org/dc/dcmitype/StillImage"/>
      </cc:Work>
    </rdf:RDF>
  </metadata>
  <g inkscape:label="Vrstva 1" inkscape:groupmode="layer" id="layer1">
    <path id="path1934" d="M 511.24713,580.76386 C 510.56535,580.48034 509.62812,579.79111 509.16439,579.2324 C 508.50476,578.43754 506.42454,544.04464 499.60733,421.22341 C 494.81469,334.87724 490.7335,263.57386 490.53804,262.77149 C 490.28731,261.74217 489.99218,261.5031 489.5357,261.95958 C 489.13757,262.35772 485.64833,314.43162 480.46365,397.35227 C 473.71116,505.34732 471.85762,532.37414 471.12716,533.48895 C 470.62589,534.25402 469.5013,535.05929 468.62809,535.27842 C 464.93319,536.20578 464.44351,535.49452 452.62369,512.03146 L 441.49844,489.94716 L 408.75971,489.93885 C 390.7534,489.93427 375.39817,489.76365 374.63696,489.55971 C 373.83591,489.34508 371.41218,486.73981 368.88274,483.37447 C 359.75734,471.23345 348.55874,460.87708 339.9612,456.6281 C 335.64355,454.49428 334.87146,454.31219 330.36074,454.36395 C 326.56043,454.40755 324.17404,454.85499 319.76627,456.35038 C 308.30459,460.23891 289.3136,471.02249 271.65648,483.66836 L 263.31488,489.64255 L 217.31861,489.82511 C 185.07868,489.95306 170.63084,489.80662 169.01024,489.33548 C 165.39083,488.28325 164.37219,484.35285 167.03008,481.69497 L 168.52545,480.1996 L 214.32707,480.1996 L 260.1287,480.1996 L 265.37713,476.31356 C 272.94119,470.71295 284.2228,463.29491 291.8911,458.8797 C 311.17652,447.77565 326.37409,443.17521 336.18616,445.47119 C 348.30285,448.30642 360.62931,457.50878 373.06898,473.00618 L 378.8431,480.1996 L 411.96572,480.1996 C 431.3763,480.1996 445.71761,480.43884 446.60835,480.7775 C 447.80549,481.23266 449.63271,484.3467 455.21088,495.43834 C 461.89932,508.73768 463.48474,511.00451 463.90658,507.87149 C 463.99327,507.22759 468.85603,429.8017 474.7127,335.81395 C 480.56936,241.82621 485.50603,164.31378 485.68306,163.5641 C 486.57303,159.79511 492.6212,159.3801 494.20234,162.97952 C 494.84587,164.44449 497.60777,211.09405 505.34707,351.21806 C 511.73755,466.92125 515.87914,537.75187 516.27731,538.15005 C 516.7259,538.59868 517.06023,538.56159 517.39089,538.02657 C 517.65078,537.60601 520.95502,524.9049 524.73364,509.80177 C 530.3557,487.33048 531.84415,482.14701 532.92648,481.27059 C 534.16186,480.27024 537.23341,480.1996 579.49652,480.1996 L 624.74399,480.1996 L 632.23458,471.51819 C 641.45844,460.8278 658.58532,443.71589 666.32884,437.45366 C 677.93683,428.06616 688.24195,422.93273 695.47884,422.93273 C 699.40272,422.93273 704.28801,424.44927 708.43504,426.9547 C 718.11296,432.80167 730.25134,449.5201 740.68452,471.37252 L 744.89888,480.1996 L 789.70747,480.1996 L 834.51599,480.1996 L 836.0114,481.69497 C 837.82663,483.51022 837.96346,486.20195 836.34226,488.2043 L 835.1778,489.64255 L 788.06141,489.79192 C 737.57511,489.95197 738.70973,490.01668 737.20787,486.89224 C 729.14633,470.12139 723.53717,459.28331 720.50179,454.61227 C 712.86402,442.859 704.15276,434.17438 698.46501,432.64282 C 693.6778,431.35376 686.27733,434.55443 675.5234,442.565 C 668.41384,447.86086 646.68179,469.41958 637.06747,480.7142 C 633.2613,485.18564 629.4943,489.09227 628.69645,489.39562 C 627.87973,489.70613 608.26047,489.94716 583.80069,489.94716 C 549.76764,489.94716 540.22678,490.11214 539.76125,490.70868 C 539.43441,491.12752 534.29108,511.01994 528.33164,534.91406 C 522.12543,559.79755 517.07686,578.85163 516.51456,579.51355 C 515.33363,580.9038 512.94607,581.47051 511.24713,580.76386 z" style="fill:#000000" sodipodi:nodetypes="cssssssscccssssscccscccccsscccssssssssssscccsssccccccccssssssssssc"/>
    <rect style="fill:#235ba6;fill-opacity:1;stroke:none;stroke-width:1;stroke-miterlimit:4;stroke-dasharray:none;stroke-opacity:1" id="rect2845" width="298.15836" height="10.443793" x="442.49988" y="685.55145"/>
    <path style="fill:none;fill-opacity:0.75;fill-rule:evenodd;stroke:#235ba6;stroke-width:1.57861269px;stroke-linecap:butt;stroke-linejoin:miter;stroke-opacity:1" d="M 442.83566,645.51681 L 442.83566,712.53125" id="path2847"/>
    <path style="fill:none;fill-opacity:0.75;fill-rule:evenodd;stroke:#235ba6;stroke-width:1.57861269px;stroke-linecap:butt;stroke-linejoin:miter;stroke-opacity:1" d="M 740.31015,508.00667 L 740.31015,711.6609" id="path2849"/>
    <rect style="fill:#ca4800;fill-opacity:1;stroke:none;stroke-width:1;stroke-miterlimit:4;stroke-dasharray:none;stroke-opacity:1" id="rect8168" width="183.49429" height="10.445113" x="260.28116" y="592.77521"/>
    <path sodipodi:nodetypes="cc" style="fill:#ca4800;fill-opacity:1;fill-rule:evenodd;stroke:none;stroke-width:2.59119391px;stroke-linecap:butt;stroke-linejoin:miter;stroke-opacity:1" d="M 259.96415,506.61373 L 259.96415,619.75499" id="path8170"/>
    <path sodipodi:nodetypes="cc" style="fill:#ca4800;fill-opacity:1;fill-rule:evenodd;stroke:none;stroke-width:2.59119391px;stroke-linecap:butt;stroke-linejoin:miter;stroke-opacity:1" d="M 443.42707,506.83135 L 443.42707,618.88466" id="path8172"/>
    <rect y="592.34003" x="260.05737" height="11.31411" width="182.40614" id="rect13502" style="fill:#ca4800;fill-opacity:1;stroke:none;stroke-width:1;stroke-miterlimit:4;stroke-dasharray:none;stroke-opacity:1"/>
    <rect y="363.44653" x="374.93924" height="11.749269" width="67.959404" id="rect14389" style="fill:#3d7020;fill-opacity:1;stroke:none;stroke-width:1;stroke-miterlimit:4;stroke-dasharray:none;stroke-opacity:1"/>
    <rect y="340.60077" x="534.42487" height="10.87895" width="91.022812" id="rect14391" style="fill:#a6368a;fill-opacity:1;stroke:none;stroke-width:1;stroke-miterlimit:4;stroke-dasharray:none;stroke-opacity:1"/>
    <rect y="89.514168" x="443.25916" height="10.87895" width="91.022812" id="rect14393" style="fill:#db2943;fill-opacity:1;stroke:none;stroke-width:1;stroke-miterlimit:4;stroke-dasharray:none;stroke-opacity:1"/>
    <path id="path14395" d="M 259.87712,505.83047 L 259.87712,619.84198" style="fill:#ca4800;fill-opacity:1;fill-rule:evenodd;stroke:#ca4800;stroke-width:1.57861269px;stroke-linecap:butt;stroke-linejoin:miter;stroke-opacity:1" sodipodi:nodetypes="cc"/>
    <path id="path17052" d="M 443.07892,506.61378 L 443.07892,620.62532" style="fill:#ca4800;fill-opacity:1;fill-rule:evenodd;stroke:#ca4800;stroke-width:1.57861269px;stroke-linecap:butt;stroke-linejoin:miter;stroke-opacity:1" sodipodi:nodetypes="cc"/>
    <path id="path17054" d="M 443.07892,346.47538 L 443.07892,460.4869" style="fill:#3d7020;fill-opacity:1;fill-rule:evenodd;stroke:#3d7020;stroke-width:1.57861269px;stroke-linecap:butt;stroke-linejoin:miter;stroke-opacity:1" sodipodi:nodetypes="cc"/>
    <path id="path22368" d="M 443.07892,73.630906 L 443.07892,322.54161" style="fill:#db2943;fill-opacity:1;fill-rule:evenodd;stroke:#db2943;stroke-width:1.57861269px;stroke-linecap:butt;stroke-linejoin:miter;stroke-opacity:1" sodipodi:nodetypes="cc"/>
    <path id="path24140" d="M 534.46224,72.760588 L 534.46224,300.78367" style="fill:#db2943;fill-opacity:1;fill-rule:evenodd;stroke:#db2943;stroke-width:1.57861269px;stroke-linecap:butt;stroke-linejoin:miter;stroke-opacity:1" sodipodi:nodetypes="cc"/>
    <path id="path24142" d="M 625.84557,323.41198 L 625.84557,461.7924" style="fill:#db2943;fill-opacity:1;fill-rule:evenodd;stroke:#a6368a;stroke-width:1.57861269px;stroke-linecap:butt;stroke-linejoin:miter;stroke-opacity:1" sodipodi:nodetypes="cc"/>
    <path id="path24144" d="M 534.46224,324.71744 L 534.46224,463.09786" style="fill:#db2943;fill-opacity:1;fill-rule:evenodd;stroke:#a6368a;stroke-width:1.57861269px;stroke-linecap:butt;stroke-linejoin:miter;stroke-opacity:1" sodipodi:nodetypes="cc"/>
    <path id="path24146" d="M 374.84605,346.69296 L 374.84605,460.70449" style="fill:#3d7020;fill-opacity:1;fill-rule:evenodd;stroke:#3d7020;stroke-width:1.57861269px;stroke-linecap:butt;stroke-linejoin:miter;stroke-opacity:1" sodipodi:nodetypes="cc"/>
    <text xml:space="preserve" style="font-size:24.36888504px;font-style:normal;font-weight:normal;fill:#000000;fill-opacity:1;stroke:none;stroke-width:1px;stroke-linecap:butt;stroke-linejoin:miter;stroke-opacity:1;font-family:Bitstream Vera Sans" x="323.19653" y="424.46817" id="text24148"><tspan sodipodi:role="line" id="tspan24150" x="323.19653" y="424.46817" style="font-size:34.11643982px;font-weight:bold;font-family:Arial">P</tspan></text>
    <text xml:space="preserve" style="font-size:24.36888504px;font-style:normal;font-weight:normal;fill:#000000;fill-opacity:1;stroke:none;stroke-width:1px;stroke-linecap:butt;stroke-linejoin:miter;stroke-opacity:1;font-family:Bitstream Vera Sans" x="455.03094" y="572.87531" id="text24152"><tspan sodipodi:role="line" id="tspan24154" x="455.03094" y="572.87531" style="font-size:34.11643982px;font-weight:bold;font-family:Arial">Q</tspan></text>
    <text xml:space="preserve" style="font-size:24.36888504px;font-style:normal;font-weight:normal;fill:#000000;fill-opacity:1;stroke:none;stroke-width:1px;stroke-linecap:butt;stroke-linejoin:miter;stroke-opacity:1;font-family:Bitstream Vera Sans" x="476.80246" y="142.11331" id="text24156"><tspan sodipodi:role="line" id="tspan24158" x="476.80246" y="142.11331" style="font-size:34.11643982px;font-weight:bold;font-family:Arial">R</tspan></text>
    <text xml:space="preserve" style="font-size:24.36888504px;font-style:normal;font-weight:normal;fill:#000000;fill-opacity:1;stroke:none;stroke-width:1px;stroke-linecap:butt;stroke-linejoin:miter;stroke-opacity:1;font-family:Bitstream Vera Sans" x="498.95715" y="622.13104" id="text24160"><tspan sodipodi:role="line" id="tspan24162" x="498.95715" y="622.13104" style="font-size:34.11643982px;font-weight:bold;font-family:Arial">S</tspan></text>
    <text xml:space="preserve" style="font-size:24.36888504px;font-style:normal;font-weight:normal;fill:#000000;fill-opacity:1;stroke:none;stroke-width:1px;stroke-linecap:butt;stroke-linejoin:miter;stroke-opacity:1;font-family:Bitstream Vera Sans" x="684.81006" y="406.73846" id="text24164"><tspan sodipodi:role="line" id="tspan24166" x="684.81006" y="406.73846" style="font-size:34.11643982px;font-weight:bold;font-family:Arial">T</tspan></text>
    <text xml:space="preserve" style="font-size:15.83977509px;font-weight:bold;text-align:center;text-anchor:middle" x="578.48486" y="367.41849" id="text24168"><tspan sodipodi:role="line" id="tspan24170" x="578.48486" y="367.41849" style="font-size:15.83977509px;font-weight:bold;text-align:center;text-anchor:middle">ST</tspan><tspan sodipodi:role="line" x="578.48486" y="387.2182" id="tspan24172" style="font-size:15.83977509px;font-weight:bold;text-align:center;text-anchor:middle">segment</tspan></text>
    <text xml:space="preserve" style="font-size:13.40288639px;font-style:normal;font-variant:normal;font-weight:bold;font-stretch:normal;text-align:center;line-height:100%;writing-mode:lr-tb;text-anchor:middle;font-family:Bitstream Vera Sans" x="409.27838" y="390.65909" id="text24174" sodipodi:linespacing="100%"><tspan sodipodi:role="line" id="tspan24176" x="409.27838" y="390.65909" style="font-size:13.40288639px;font-style:normal;font-variant:normal;font-weight:bold;font-stretch:normal;text-align:center;line-height:100%;writing-mode:lr-tb;text-anchor:middle;font-family:Bitstream Vera Sans" dy="-0.71393216" dx="0.71393216">PR</tspan><tspan sodipodi:role="line" x="409.27838" y="403.09039" id="tspan24178" style="font-size:12.18444252px;font-style:normal;font-variant:normal;font-weight:bold;font-stretch:normal;text-align:center;line-height:100%;writing-mode:lr-tb;text-anchor:middle;font-family:Bitstream Vera Sans">segment</tspan></text>
    <text xml:space="preserve" style="font-size:15.83977509px;font-weight:bold;text-align:center;text-anchor:middle" x="344.66064" y="583.16626" id="text24180"><tspan sodipodi:role="line" x="344.66064" y="583.16626" id="tspan24184" style="font-size:15.83977509px;font-weight:bold;text-align:center;text-anchor:middle">PR interval</tspan></text>
    <text xml:space="preserve" style="font-size:15.83977509px;font-weight:bold;text-align:center;text-anchor:middle" x="596.72937" y="674.22845" id="text24188"><tspan sodipodi:role="line" x="596.72937" y="674.22845" id="tspan24190" style="font-size:15.83977509px;font-weight:bold;text-align:center;text-anchor:middle">QT interval</tspan></text>
    <text xml:space="preserve" style="font-size:15.83977509px;font-weight:bold;text-align:center;text-anchor:middle" x="488.0195" y="62.00787" id="text24192"><tspan sodipodi:role="line" x="488.0195" y="62.00787" id="tspan24194" style="font-size:15.83977509px;font-weight:bold;text-align:center;text-anchor:middle">QRS</tspan><tspan sodipodi:role="line" x="488.0195" y="81.807587" style="font-size:15.83977509px;font-weight:bold;text-align:center;text-anchor:middle" id="tspan24196"> komplex</tspan></text>
  </g>
</svg>